<svg xmlns:xlink="http://www.w3.org/1999/xlink" viewBox="0 0 375 52" fill="none" xmlns="http://www.w3.org/2000/svg" class="-mb-1" width="1012"  height="140" ><path fill-rule="evenodd" clip-rule="evenodd" d="M0 0L15.625 8.66667C31.25 17.3333 62.5 34.6667 93.75 36.8333C125 39 156.25 26 187.5 21.6667C218.75 17.3333 250 21.6667 281.25 19.5C312.5 17.3333 343.75 8.66667 359.375 4.33333L375 0V52H359.375C343.75 52 312.5 52 281.25 52C250 52 218.75 52 187.5 52C156.25 52 125 52 93.75 52C62.5 52 31.25 52 15.625 52H0V0Z" fill="#DAE7E7"></path></svg>